<?xml version="1.0" encoding="UTF-8" standalone="no"?>
<svg width="200px" height="200px" viewBox="0 0 200 200" version="1.1" xmlns="http://www.w3.org/2000/svg" xmlns:xlink="http://www.w3.org/1999/xlink" xmlns:sketch="http://www.bohemiancoding.com/sketch/ns">
    <!-- Generator: Sketch 3.0.3 (7892) - http://www.bohemiancoding.com/sketch -->
    <title>Slice 1</title>
    <desc>Created with Sketch.</desc>
    <defs></defs>
    <g id="Page-1" stroke="none" stroke-width="1" fill="none" fill-rule="evenodd" sketch:type="MSPage">
        <g id="icon_6728-+-icon_42267" sketch:type="MSLayerGroup">
            <g id="icon_6728">
                <g id="Layer_1"></g>
                <g id="Isolation_Mode" transform="translate(10.896861, 2.000000)" fill="#465A99" sketch:type="MSShapeGroup">
                    <path d="M177.259139,81.524 C180.833139,54.462 169.855139,22.036 137.431139,7.484 C111.793139,-4.022 66.541139,-4.002 42.673139,17.756 C21.857139,36.736 17.165139,63.674 17.165139,63.674 C17.165139,63.674 15.017139,73.682 15.017139,77.004 C15.017139,80.18 18.593139,81.43 18.183139,83.062 C17.775139,84.694 13.769139,89.364 10.707139,94.468 C7.64713901,99.57 -0.178860987,110.912 -0.178860987,113.972 C-0.178860987,117.032 1.65313901,118.166 5.32713901,119.39 C8.99913901,120.614 11.857139,121.634 12.469139,123.062 C13.081139,124.49 10.719139,128.57 10.593139,131.48 C10.485139,133.962 11.393139,134.238 13.253139,134.96 C15.559139,135.858 19.099139,135.974 19.099139,135.974 C19.099139,135.974 11.213139,137.464 11.997139,140.692 C12.809139,144.042 17.559139,144.722 17.981139,147.346 C18.191139,148.67 13.965139,155.452 14.521139,162.054 C15.247139,170.67 23.409139,174.526 36.349139,172.45 C48.683139,170.47 54.483139,168.63 56.069139,175.432 C57.067139,179.714 56.961139,186.938 58.797139,195.104 C58.873139,195.43 58.951139,195.78 59.025139,196.124 L153.679139,196.124 C149.631139,188.746 144.309139,176.904 144.309139,161.836 C144.309139,151.498 145.337139,136.152 152.751139,127.99 C162.045139,117.758 174.389139,103.268 177.259139,81.524 L177.259139,81.524 Z M138.177139,102.972 C138.177139,102.972 136.939139,116.51 127.001139,118.25 C118.491139,119.738 112.841139,111.542 112.841139,111.542 L110.045139,124.768 L104.087139,124.768 C104.087139,124.768 98.685139,104.836 94.959139,101.48 C91.231139,98.126 85.455139,97.196 85.455139,97.196 C85.455139,97.196 77.631139,96.636 72.599139,91.608 C67.569139,86.576 72.227139,80.428 72.227139,80.428 C72.227139,80.428 65.893139,80.802 53.037139,78.008 C40.183139,75.212 44.095139,67.014 44.095139,67.014 C44.095139,67.014 40.741139,67.574 37.947139,64.034 C35.961139,61.518 34.513139,55.364 38.133139,48.198 C41.377139,41.78 47.071139,39.552 47.071139,39.552 C47.071139,39.552 44.963139,36.876 49.409139,33.138 C51.731139,31.186 55.831139,31.244 55.831139,31.244 C55.831139,31.244 56.833139,26.942 63.005139,24.152 C69.997139,20.994 74.649139,23.606 74.649139,23.606 C74.649139,23.606 76.517139,19.514 81.919139,17.65 C87.323139,15.788 92.719139,18.948 92.719139,18.948 C92.719139,18.948 96.375139,15.642 103.083139,15.642 C109.789139,15.642 112.285139,19.136 112.285139,19.136 C112.285139,19.136 116.325139,17.06 121.227139,18.762 C125.859139,20.372 127.199139,24.862 127.199139,24.862 C127.199139,24.862 130.545139,22.488 135.199139,24.352 C139.857139,26.216 141.723139,31.246 141.723139,31.246 C141.723139,31.246 144.933139,30.776 148.127139,33.612 C150.497139,35.72 149.731139,39.63 149.731139,39.63 C149.731139,39.63 153.683139,40.942 156.047139,45.672 C158.249139,50.074 155.135139,53.79 155.135139,53.79 C155.135139,53.79 161.655139,58.634 162.587139,71.302 C163.723139,86.758 153.833139,89.746 153.833139,89.746 C153.833139,89.746 155.789139,94.65 152.341139,99.992 C147.649139,107.262 138.177139,102.972 138.177139,102.972 L138.177139,102.972 Z" id="Shape"></path>
                </g>
            </g>
            <g id="icon_42267" transform="translate(87.892377, 33.183857)" fill="#E88E2C" sketch:type="MSShapeGroup">
                <path d="M54.6228102,15.4241555 L54.6228102,12.0158146 L48.2668959,12.0158146 C47.4347185,9.36670653 45.3424215,7.27440957 42.6927055,6.44223219 L42.6927055,0.0857100149 L39.2843647,0.0857100149 L39.2843647,6.05076233 L35.8760239,6.05076233 L35.8760239,0.0857100149 L32.4676831,0.0857100149 L32.4676831,6.05076233 L29.0593423,6.05076233 L29.0593423,0.0857100149 L25.6510015,0.0857100149 L25.6510015,6.05076233 L22.2426607,6.05076233 L22.2426607,0.0857100149 L18.8343199,0.0857100149 L18.8343199,6.05076233 L15.4259791,6.05076233 L15.4259791,0.0857100149 L12.0176383,0.0857100149 L12.0176383,6.44223219 C9.36792227,7.27501744 7.27623318,9.36670653 6.4440558,12.0158146 L0.0857100149,12.0158146 L0.0857100149,15.4241555 L6.05076233,15.4241555 L6.05076233,18.8324963 L0.0857100149,18.8324963 L0.0857100149,22.2408371 L6.05076233,22.2408371 L6.05076233,25.6491779 L0.0857100149,25.6491779 L0.0857100149,29.0575187 L6.05076233,29.0575187 L6.05076233,32.4658595 L0.0857100149,32.4658595 L0.0857100149,35.8742003 L6.05076233,35.8742003 L6.05076233,39.2825411 L0.0857100149,39.2825411 L0.0857100149,42.6908819 L6.44223219,42.6908819 C7.27501744,45.33999 9.36609865,47.4328949 12.0158146,48.2650722 L12.0158146,54.6209865 L15.4241555,54.6209865 L15.4241555,48.6559342 L18.8324963,48.6559342 L18.8324963,54.6209865 L22.2408371,54.6209865 L22.2408371,48.6559342 L25.6491779,48.6559342 L25.6491779,54.6209865 L29.0575187,54.6209865 L29.0575187,48.6559342 L32.4658595,48.6559342 L32.4658595,54.6209865 L35.8742003,54.6209865 L35.8742003,48.6559342 L39.2825411,48.6559342 L39.2825411,54.6209865 L42.6908819,54.6209865 L42.6908819,48.2668959 C45.3405979,47.4347185 47.4328949,45.3418137 48.2650722,42.6927055 L54.6209865,42.6927055 L54.6209865,39.2843647 L48.6565421,39.2843647 L48.6565421,35.8760239 L54.6209865,35.8760239 L54.6209865,32.4676831 L48.6565421,32.4676831 L48.6565421,29.0593423 L54.6209865,29.0593423 L54.6209865,25.6510015 L48.6565421,25.6510015 L48.6565421,22.2426607 L54.6209865,22.2426607 L54.6209865,18.8343199 L48.6565421,18.8343199 L48.6565421,15.4259791 L54.6228102,15.4259791 L54.6228102,15.4241555 Z M38.4327354,38.4321276 L16.2763926,38.4321276 L16.2763926,16.2763926 L38.4327354,16.2763926 L38.4327354,38.4321276 L38.4327354,38.4321276 Z" id="Shape"></path>
            </g>
        </g>
    </g>
</svg>